# xmcd CD database file
# Copyright (C) 1993-1998 Ti Kan
#
# Track frame offsets:
#	150
#	21683
#	38285
#	57270
#	72805
#	94405
#	111373
#	129848
#	149260
#	167893
#	185963
#	197578
#	211055
#
# Disc length: 3086 seconds
#
# Revision: 1
# Processed by: cddbd v1.4b41PL1 Copyright (c) Steve Scherf et al.
# Submitted via: QuintessentialCD v1.1 (c) 1998 Paul Quinn
#
DISCID=be0c0c0d
DTITLE=Suzie Vinnick - Angel in the Sidelines
DYEAR=1900
DGENRE=
TTITLE0=That Vision
TTITLE1=Will You Look Back
TTITLE2=When You Lose  In Love
TTITLE3=What Do We Do Now
TTITLE4=Oreo Cookie Blues
TTITLE5=How Come
TTITLE6=Do I Love You
TTITLE7=Anything
TTITLE8=Calling the World
TTITLE9=Angel From The Sidelines
TTITLE10=Don't Wanna Know
TTITLE11=Keep Lightin That Fire
TTITLE12=Carry On
EXTD=
EXTT0=
EXTT1=
EXTT2=
EXTT3=
EXTT4=
EXTT5=
EXTT6=
EXTT7=
EXTT8=
EXTT9=
EXTT10=
EXTT11=
EXTT12=
PLAYORDER=
